<svg xmlns="http://www.w3.org/2000/svg" width="180" height="180" viewBox="0 0 180 180" role="img" aria-label="Quity">
  <title>Quity — Q mark</title>
  <rect width="180" height="180" rx="42.0" fill="#0F1110"/>
  <path transform="translate(43.2,131.7) scale(0.120000,-0.120000)" fill="#F4F2EC" d="M163.25 350Q163.25 422.25 194.125 478.375Q225 534.5 279.125 566.875Q333.25 599.25 402.5 599.25Q475.75 599.25 530.375 565.0Q585 530.75 615.875 472.75Q646.75 414.75 646.75 342.5Q646.75 270.5 615.875 214.875Q585 159.25 531.25 127.5Q477.5 95.75 407.5 95.75Q338.25 95.75 282.875 128.375Q227.5 161 195.375 218.25Q163.25 275.5 163.25 350ZM37.5 350Q37.5 272 64.625 205.125Q91.75 138.25 141.125 89.125Q190.5 40 257.25 12.5Q324 -15 402.5 -15Q481.75 -15 547.75 12.5Q613.75 40 662.625 89.125Q711.5 138.25 738.25 205.125Q765 272 765 350Q765 428.75 738.0 494.875Q711 561 662.125 609.625Q613.25 658.25 547.25 685.375Q481.25 712.5 402.5 712.5Q325 712.5 258.375 685.375Q191.75 658.25 142.125 609.625Q92.5 561 65.0 494.875Q37.5 428.75 37.5 350ZM370 300 682.5 -5H821.25L506.25 300Z"/>
</svg>
